<?xml version="1.0" encoding="UTF-8" standalone="no"?><!-- Created with Inkscape (http://www.inkscape.org/) -->

<svg version="1.1" id="svg1" width="1400" height="1400" viewBox="0 0 1400 1400"
    sodipodi:docname="monochrome.svg" inkscape:version="1.4 (e7c3feb100, 2024-10-09)"
    xmlns:inkscape="http://www.inkscape.org/namespaces/inkscape"
    xmlns:sodipodi="http://sodipodi.sourceforge.net/DTD/sodipodi-0.dtd"
    xmlns="http://www.w3.org/2000/svg">
    <defs id="defs1" />
    <sodipodi:namedview id="namedview1" pagecolor="#ffffff" bordercolor="#000000"
        borderopacity="0.25" inkscape:showpageshadow="2" inkscape:pageopacity="0.0"
        inkscape:pagecheckerboard="0" inkscape:deskcolor="#d1d1d1" inkscape:zoom="0.17658114"
        inkscape:cx="291.65063" inkscape:cy="707.88987" inkscape:window-width="1290"
        inkscape:window-height="761" inkscape:window-x="0" inkscape:window-y="0"
        inkscape:window-maximized="1" inkscape:current-layer="g1" />
    <g inkscape:groupmode="layer" inkscape:label="Image" id="g1" style="display:inline">
        <path style="display:inline;fill:#000000"
            d="m 463.23,999.73375 c -3.9,-0.94502 -12.27,-4.28012 -18.59,-7.41133 -16.47,-8.16484 -28.63,-20.55929 -36.74,-37.46014 -3.31,-6.88427 -6.66,-15.69639 -7.45,-19.58249 -1,-4.88886 -1.45,-67.83936 -1.45,-204.33334 V 533.67874 h 301.33 301.34 v 197.26771 c 0,136.49398 -0.45,199.44448 -1.45,204.33334 -0.79,3.8861 -4.15,12.69822 -7.45,19.58249 -8.41,17.52144 -20.4,29.51014 -37.92,37.91851 -6.88,3.30369 -15.7,6.65725 -19.58,7.45231 -11.08,2.2656 -462.59,1.788 -472.04,-0.49935 z m 79.81,-89.4109 c 7.45,-3.85288 7.96,-6.56338 7.96,-42.6441 0,-47.33012 2.66,-44.66667 -44.67,-44.66667 -47.33,0 -44.66,-2.66345 -44.66,44.66667 0,35.8374 0.51,38.68978 7.68,42.57949 5.43,2.94566 68.02,3.00054 73.69,0.0646 z m 125.34,0 c 7.45,-3.85288 7.95,-6.56338 7.95,-42.6441 0,-47.33012 2.67,-44.66667 -44.66,-44.66667 -47.33,0 -44.67,-2.66345 -44.67,44.66667 0,35.8374 0.51,38.68978 7.68,42.57949 5.43,2.94566 68.02,3.00054 73.7,0.0646 z m 126.66,0 c 7.45,-3.85288 7.96,-6.56338 7.96,-42.6441 0,-47.39748 2.77,-44.66667 -45.33,-44.66667 -48.11,0 -45.34,-2.73081 -45.34,44.66667 0,35.8374 0.52,38.68978 7.69,42.57949 5.43,2.94777 69.34,3.00281 75.02,0.0646 z m 125.34,0 c 7.45,-3.85288 7.95,-6.56338 7.95,-42.6441 0,-47.39748 2.77,-44.66667 -45.33,-44.66667 -48.1,0 -45.33,-2.73081 -45.33,44.66667 0,35.8374 0.51,38.68978 7.68,42.57949 5.43,2.94777 69.35,3.00281 75.03,0.0646 z M 543.04,784.98951 c 7.45,-3.85287 7.96,-6.56338 7.96,-42.6441 0,-47.33012 2.66,-44.66666 -44.67,-44.66666 -47.33,0 -44.66,-2.66346 -44.66,44.66666 0,35.8374 0.51,38.68978 7.68,42.57949 5.43,2.94566 68.02,3.00054 73.69,0.0646 z m 125.34,0 c 7.45,-3.85287 7.95,-6.56338 7.95,-42.6441 0,-47.33012 2.67,-44.66666 -44.66,-44.66666 -47.33,0 -44.67,-2.66346 -44.67,44.66666 0,35.8374 0.51,38.68978 7.68,42.57949 5.43,2.94566 68.02,3.00054 73.7,0.0646 z m 126.66,0 c 7.45,-3.85287 7.96,-6.56338 7.96,-42.6441 0,-47.39747 2.77,-44.66666 -45.33,-44.66666 -48.11,0 -45.34,-2.73081 -45.34,44.66666 0,35.8374 0.52,38.68978 7.69,42.57949 5.43,2.94777 69.34,3.00281 75.02,0.0646 z m 125.34,0 c 7.45,-3.85287 7.95,-6.56338 7.95,-42.6441 0,-47.39747 2.77,-44.66666 -45.33,-44.66666 -48.1,0 -45.33,-2.73081 -45.33,44.66666 0,35.8374 0.51,38.68978 7.68,42.57949 5.43,2.94777 69.35,3.00281 75.03,0.0646 z M 543.04,659.65618 c 7.47,-3.86357 7.96,-6.50393 7.96,-43.31077 0,-48.1049 2.73,-45.33333 -44.67,-45.33333 -47.39,0 -44.66,-2.77157 -44.66,45.33333 0,36.56154 0.49,39.34555 7.68,43.24615 5.43,2.94567 68.02,3.00054 73.69,0.0646 z m 125.34,0 c 7.47,-3.86357 7.95,-6.50393 7.95,-43.31077 0,-48.1049 2.73,-45.33333 -44.66,-45.33333 -47.4,0 -44.67,-2.77157 -44.67,45.33333 0,36.56154 0.49,39.34555 7.68,43.24615 5.43,2.94567 68.02,3.00054 73.7,0.0646 z m 126.66,0 c 7.47,-3.86357 7.96,-6.50393 7.96,-43.31077 0,-48.17249 2.84,-45.33333 -45.33,-45.33333 -36.81,0 -39.45,0.48504 -43.31,7.95635 -2.98,5.74663 -2.98,68.99783 0,74.74273 3.85,7.44874 6.07,7.85567 43.05,7.9142 27.62,0.0437 34.44,-0.31308 37.64,-1.96918 z m 125.34,0 c 7.47,-3.86357 7.95,-6.50393 7.95,-43.31077 0,-48.17249 2.84,-45.33333 -45.33,-45.33333 -48.17,0 -45.33,-2.83916 -45.33,45.33333 0,36.56154 0.49,39.34555 7.68,43.24615 5.43,2.94777 69.35,3.00282 75.03,0.0646 z M 399,494.62554 c 0,-26.64411 1.27,-33.31004 9.54,-50.2027 7.61,-15.55247 20.32,-28.2575 35.87,-35.87278 21.01,-10.28647 0.92,-9.53798 255.92,-9.53798 255,0 234.92,-0.74849 255.93,9.53798 15.55,7.61528 28.25,20.32031 35.87,35.87278 8.27,16.89266 9.54,23.55859 9.54,50.2027 v 23.0532 H 700.33 399 Z m 188,-7.2822 c 7.22,-3.60433 9.33,-9.26919 9.33,-24.99793 0,-10.02565 -0.58,-14.49102 -2.33,-18 -3.61,-7.21508 -9.27,-9.32919 -25,-9.32919 -22.87,0 -27.33,4.4636 -27.33,27.32919 0,10.02565 0.58,14.49102 2.33,18 3.61,7.21508 9.27,9.32919 25,9.32919 10.03,0 14.49,-0.57833 18,-2.33126 z m 126.78,-0.71383 c 6.01,-4.01758 7.22,-8.07212 7.22,-24.2841 0,-23.94373 -2.67,-26.66667 -26.13,-26.66667 -22.94,0 -26.63,2.88671 -27.62,21.58857 -0.82,15.60849 0.45,22.23798 5.17,26.9623 4.92,4.91971 6.67,5.28325 23.91,4.96228 10.72,-0.19955 14.81,-0.80022 17.45,-2.56238 z m 125.33,0 c 6.02,-4.01758 7.22,-8.07212 7.22,-24.2841 0,-23.94373 -2.66,-26.66667 -26.12,-26.66667 -22.95,0 -26.64,2.88671 -27.63,21.58857 -0.82,15.60849 0.45,22.23798 5.18,26.9623 4.92,4.91971 6.67,5.28325 23.91,4.96228 10.71,-0.19955 14.8,-0.80022 17.44,-2.56238 z"
            id="path1" inkscape:transform-center-x="28.031007"
            inkscape:transform-center-y="20.022152" />
    </g>
</svg>
